<svg xmlns="http://www.w3.org/2000/svg" width="190.903" height="138.868" viewBox="0 0 190.903 138.868">
  <g id="code-HyMlmm5pN" transform="translate(-17.818 -20.364)">
    <g id="Group_16" data-name="Group 16" transform="translate(17.818 20.364)">
      <path id="Path_80" data-name="Path 80" d="M187.367,0H3.535A3.309,3.309,0,0,0,0,3.019V111.7a3.307,3.307,0,0,0,3.535,3.019H91.916V132.83H60.1a3.057,3.057,0,1,0,0,6.038h70.7a3.057,3.057,0,1,0,0-6.038H98.986V114.717h88.381A3.3,3.3,0,0,0,190.9,111.7V3.019A3.307,3.307,0,0,0,187.367,0ZM87.345,61.262a2.715,2.715,0,0,1,0,4.269,3.974,3.974,0,0,1-5,0l-7.07-6.038a2.715,2.715,0,0,1,0-4.269l7.07-6.038a3.971,3.971,0,0,1,5,0,2.715,2.715,0,0,1,0,4.269l-4.571,3.9,4.571,3.9Zm15.071-15.245-7.07,24.151a3.481,3.481,0,0,1-3.426,2.285,4.011,4.011,0,0,1-.863-.091A3.024,3.024,0,0,1,88.483,68.7l7.07-24.151a3.618,3.618,0,0,1,4.285-2.2,3.025,3.025,0,0,1,2.577,3.665Zm13.211,13.476-7.07,6.038a3.974,3.974,0,0,1-5,0,2.715,2.715,0,0,1,0-4.269l4.571-3.9-4.571-3.9a2.715,2.715,0,0,1,0-4.269,3.971,3.971,0,0,1,5,0l7.07,6.038a2.715,2.715,0,0,1,0,4.269Z" fill="#e41c38" fill-rule="evenodd"/>
    </g>
  </g>
</svg>
