<svg xmlns="http://www.w3.org/2000/svg" xmlns:xlink="http://www.w3.org/1999/xlink" width="848.418" height="820.846" viewBox="0 0 848.418 820.846">
  <defs>
    <linearGradient id="linear-gradient" x1="1" y1="-0.526" x2="0.5" y2="1" gradientUnits="objectBoundingBox">
      <stop offset="0" stop-color="#fff"/>
      <stop offset="1" stop-color="#001a33"/>
    </linearGradient>
    <linearGradient id="linear-gradient-2" x1="0.521" y1="1.133" x2="0.591" y2="-0.069" gradientUnits="objectBoundingBox">
      <stop offset="0" stop-color="#fff" stop-opacity="0"/>
      <stop offset="0" stop-color="#e41c38"/>
      <stop offset="0.773" stop-color="#001a33"/>
      <stop offset="1" stop-color="#fff"/>
    </linearGradient>
    <linearGradient id="linear-gradient-3" x1="2.944" y1="98.494" x2="2.889" y2="58.447" gradientUnits="objectBoundingBox">
      <stop offset="0" stop-color="#fff" stop-opacity="0"/>
      <stop offset="0.99" stop-color="#fff"/>
    </linearGradient>
    <linearGradient id="linear-gradient-4" x1="4.508" y1="103.127" x2="4.417" y2="60.38" xlink:href="#linear-gradient-3"/>
    <linearGradient id="linear-gradient-5" x1="1.774" y1="101.862" x2="1.745" y2="59.469" xlink:href="#linear-gradient-3"/>
    <linearGradient id="linear-gradient-6" x1="2.762" y1="101.402" x2="2.711" y2="59.017" xlink:href="#linear-gradient-3"/>
    <linearGradient id="linear-gradient-7" x1="3.419" y1="95.688" x2="3.353" y2="55.164" xlink:href="#linear-gradient-3"/>
    <linearGradient id="linear-gradient-8" x1="2.952" y1="92.542" x2="2.896" y2="52.494" xlink:href="#linear-gradient-3"/>
    <linearGradient id="linear-gradient-9" x1="3.424" y1="83.093" x2="3.358" y2="47.036" xlink:href="#linear-gradient-3"/>
    <linearGradient id="linear-gradient-10" x1="3.679" y1="96.751" x2="3.607" y2="54.004" xlink:href="#linear-gradient-3"/>
    <linearGradient id="linear-gradient-11" x1="2.04" y1="86.878" x2="2.005" y2="48.357" xlink:href="#linear-gradient-3"/>
    <linearGradient id="linear-gradient-12" x1="2.944" y1="77.791" x2="2.889" y2="37.743" xlink:href="#linear-gradient-3"/>
    <linearGradient id="linear-gradient-13" x1="4.508" y1="81.034" x2="4.417" y2="38.283" xlink:href="#linear-gradient-3"/>
    <linearGradient id="linear-gradient-14" x1="1.774" y1="79.946" x2="1.745" y2="37.552" xlink:href="#linear-gradient-3"/>
    <linearGradient id="linear-gradient-15" x1="2.762" y1="79.494" x2="2.711" y2="37.1" xlink:href="#linear-gradient-3"/>
    <linearGradient id="linear-gradient-16" x1="3.419" y1="74.752" x2="3.353" y2="34.224" xlink:href="#linear-gradient-3"/>
    <linearGradient id="linear-gradient-17" x1="2.952" y1="71.838" x2="2.896" y2="31.791" xlink:href="#linear-gradient-3"/>
    <linearGradient id="linear-gradient-18" x1="3.424" y1="64.456" x2="3.358" y2="28.399" xlink:href="#linear-gradient-3"/>
    <linearGradient id="linear-gradient-19" x1="3.679" y1="74.654" x2="3.607" y2="31.907" xlink:href="#linear-gradient-3"/>
    <linearGradient id="linear-gradient-20" x1="2.04" y1="66.969" x2="2.005" y2="28.445" xlink:href="#linear-gradient-3"/>
    <linearGradient id="linear-gradient-21" x1="2.944" y1="57.095" x2="2.889" y2="17.051" xlink:href="#linear-gradient-3"/>
    <linearGradient id="linear-gradient-22" x1="4.508" y1="58.941" x2="4.417" y2="16.19" xlink:href="#linear-gradient-3"/>
    <linearGradient id="linear-gradient-23" x1="1.774" y1="58.038" x2="1.745" y2="15.649" xlink:href="#linear-gradient-3"/>
    <linearGradient id="linear-gradient-24" x1="2.762" y1="57.586" x2="2.711" y2="15.192" xlink:href="#linear-gradient-3"/>
    <linearGradient id="linear-gradient-25" x1="3.419" y1="53.808" x2="3.353" y2="13.28" xlink:href="#linear-gradient-3"/>
    <linearGradient id="linear-gradient-26" x1="2.952" y1="51.146" x2="2.896" y2="11.099" xlink:href="#linear-gradient-3"/>
    <linearGradient id="linear-gradient-27" x1="3.424" y1="45.822" x2="3.358" y2="9.765" xlink:href="#linear-gradient-3"/>
    <linearGradient id="linear-gradient-28" x1="3.679" y1="52.561" x2="3.607" y2="9.81" xlink:href="#linear-gradient-3"/>
    <linearGradient id="linear-gradient-29" x1="2.04" y1="47.057" x2="2.005" y2="8.532" xlink:href="#linear-gradient-3"/>
    <linearGradient id="linear-gradient-30" x1="0.002" y1="0.501" x2="1" y2="0.501" gradientUnits="objectBoundingBox">
      <stop offset="0" stop-color="#e5c6d6"/>
      <stop offset="0.42" stop-color="#ead4d0"/>
      <stop offset="1" stop-color="#f0e9cb"/>
    </linearGradient>
    <linearGradient id="linear-gradient-31" x1="-0.001" y1="0.5" x2="1.001" y2="0.5" xlink:href="#linear-gradient-30"/>
    <linearGradient id="linear-gradient-32" x1="-0.003" y1="0.499" x2="0.998" y2="0.499" xlink:href="#linear-gradient-30"/>
    <linearGradient id="linear-gradient-33" x1="-0.004" y1="0.498" x2="0.998" y2="0.498" xlink:href="#linear-gradient-30"/>
    <linearGradient id="linear-gradient-34" x1="0" y1="0.5" x2="1.001" y2="0.5" xlink:href="#linear-gradient-30"/>
    <linearGradient id="linear-gradient-35" y1="0.5" x2="1.001" y2="0.5" gradientUnits="objectBoundingBox">
      <stop offset="0" stop-color="#010101" stop-opacity="0"/>
      <stop offset="0.95" stop-color="#010101"/>
    </linearGradient>
    <linearGradient id="linear-gradient-36" x1="0" y1="0.5" x2="1" y2="0.5" xlink:href="#linear-gradient-35"/>
    <linearGradient id="linear-gradient-37" x1="0.509" y1="-0.382" x2="0.465" y2="3.651" xlink:href="#linear-gradient-35"/>
    <linearGradient id="linear-gradient-38" x1="0.443" y1="0.912" x2="0.59" y2="-0.427" xlink:href="#linear-gradient-35"/>
    <linearGradient id="linear-gradient-39" x1="0.495" y1="-0.178" x2="0.505" y2="1.198" xlink:href="#linear-gradient-35"/>
    <linearGradient id="linear-gradient-40" x1="0.501" y1="0.622" x2="0.512" y2="1.676" xlink:href="#linear-gradient-35"/>
    <linearGradient id="linear-gradient-41" x1="0.455" y1="0.264" x2="0.766" y2="1.656" xlink:href="#linear-gradient-35"/>
    <linearGradient id="linear-gradient-42" x1="0.596" y1="0.238" x2="-0.09" y2="1.689" xlink:href="#linear-gradient-35"/>
    <linearGradient id="linear-gradient-43" x1="0.603" y1="0.096" x2="-0.102" y2="1.799" xlink:href="#linear-gradient-35"/>
  </defs>
  <g id="CodingAtDeskBack" transform="translate(-796.999 -1562.225)">
    <g id="Path_47" data-name="Path 47" transform="translate(719.114 1565.467)" fill="url(#linear-gradient)">
      <path d="M 499.4005432128906 815.103759765625 C 493.0382995605469 815.103759765625 486.7696533203125 814.83447265625 480.7687683105469 814.3031005859375 C 474.4435424804688 813.7431030273438 468.1958618164062 812.8729248046875 462.1993103027344 811.7166748046875 C 453.583984375 810.0596923828125 444.982421875 807.7420043945312 435.9044189453125 804.6316528320312 C 427.8360900878906 801.8672485351562 419.5906372070312 798.5411376953125 410.6968688964844 794.4632568359375 C 393.908203125 786.7656860351562 377.2388610839844 777.4367065429688 362.5318603515625 769.2058715820312 L 337.6493225097656 755.2382202148438 L 337.6444091796875 755.2354736328125 L 337.6395263671875 755.232666015625 C 334.3085327148438 753.3431396484375 330.8905334472656 751.4395751953125 327.5850830078125 749.5986938476562 C 325.4508666992188 748.4100341796875 323.2440795898438 747.1810302734375 321.0699768066406 745.9609985351562 L 304.9101867675781 736.9034423828125 L 304.9077453613281 736.902099609375 L 304.9052124023438 736.9006958007812 C 282.1069641113281 724.0538940429688 257.8196411132812 710.0701293945312 234.6750946044922 694.8665771484375 C 209.3888702392578 678.2562255859375 188.189208984375 661.971923828125 169.8648681640625 645.0831298828125 C 158.4100952148438 634.567138671875 147.7644195556641 623.3818969726562 138.2270965576172 611.8416748046875 C 128.2182006835938 599.7306518554688 119.3248672485352 587.0982055664062 111.7942047119141 574.2953491210938 C 95.40031433105469 546.4240112304688 85.2918701171875 517.6272583007812 81.749755859375 488.7046813964844 C 79.62008666992188 471.3791198730469 79.98375701904297 453.5851135253906 82.83064270019531 435.8179016113281 C 85.6136474609375 418.4497985839844 90.71920013427734 401.392578125 98.00542449951172 385.1199035644531 C 105.2910919189453 368.8486633300781 114.6150894165039 353.6790161132812 125.7184219360352 340.0321350097656 C 137.0750885009766 326.0740051269531 150.1053161621094 313.9475708007812 164.4472045898438 303.9898986816406 C 179.7139739990234 293.3678894042969 196.5855407714844 284.9059143066406 212.9015350341797 276.7225646972656 C 221.6932067871094 272.3130187988281 230.7841949462891 267.7534484863281 239.4774169921875 262.9256896972656 C 249.1847534179688 257.53466796875 257.3794250488281 252.3603515625 264.5297546386719 247.1070098876953 C 273.3773193359375 240.6094512939453 281.7036437988281 233.2774505615234 289.9847717285156 224.6917877197266 C 297.3782043457031 217.0265655517578 304.5653076171875 208.5305633544922 311.9568786621094 198.7183380126953 C 325.7283020019531 180.4366760253906 338.1258544921875 160.2447967529297 350.1152038574219 140.7175598144531 C 357.5956420898438 128.5341186523438 365.3307495117188 115.9358978271484 373.3233032226562 103.9259033203125 C 383.7833251953125 88.20056915283203 395.9455261230469 73.706787109375 409.4718627929688 60.84734344482422 C 422.9314270019531 48.05134582519531 437.6626586914062 36.94778823852539 453.2563171386719 27.84501075744629 C 469.0342102050781 18.63467788696289 485.6109924316406 11.52367782592773 502.5260925292969 6.709567070007324 C 519.8998413085938 1.764900207519531 537.5933227539062 -0.742210865020752 555.1148681640625 -0.742210865020752 C 572.9767456054688 -0.742210865020752 590.7129516601562 1.868011355400085 607.8311157226562 7.016011238098145 C 616.652099609375 9.668900489807129 625.427734375 13.03723335266113 633.9140625 17.02767753601074 C 642.60107421875 21.11234474182129 651.1943969726562 25.94745635986328 659.455322265625 31.39856719970703 C 669.0877685546875 37.74823379516602 678.4819946289062 45.08556747436523 687.3758544921875 53.20601272583008 C 695.8389892578125 60.93323516845703 704.0573120117188 69.55934143066406 711.8025512695312 78.84490203857422 C 726.1407470703125 96.03445434570312 739.2794189453125 115.9603424072266 750.8536376953125 138.0690155029297 C 756.5157470703125 148.8590087890625 761.7936401367188 160.0888977050781 766.8976440429688 170.9491271972656 C 772.64208984375 183.1717834472656 778.5820922851562 195.8105621337891 785.0601196289062 207.7896728515625 C 788.53662109375 214.2185668945312 791.8899536132812 219.9570159912109 795.3115234375 225.3329010009766 C 799.1430053710938 231.3526763916016 802.9622192382812 236.7687835693359 806.987548828125 241.8906707763672 C 812.4874267578125 248.8913421630859 819.0184326171875 256.1207885742188 826.953857421875 263.9925537109375 C 834.0577392578125 271.0394592285156 841.61083984375 277.9434509277344 848.915283203125 284.6201171875 C 858.103515625 293.0186767578125 867.6045532226562 301.7032470703125 876.3388671875 310.7854614257812 C 881.0575561523438 315.6921081542969 885.1795654296875 320.3172302246094 888.940185546875 324.9251098632812 C 893.1724243164062 330.1107788085938 896.84228515625 335.1419067382812 900.1595458984375 340.3057861328125 C 909.2186279296875 354.3956909179688 915.7827758789062 370.1722412109375 919.6690063476562 387.1962280273438 C 923.37109375 403.4136657714844 924.594970703125 420.5055541992188 923.3065185546875 437.9972229003906 C 922.0521850585938 455.0282287597656 918.4546508789062 472.0052185058594 912.6139526367188 488.4566650390625 C 906.7678833007812 504.9231262207031 898.8475341796875 520.3751220703125 889.072998046875 534.3832397460938 C 882.8187866210938 543.3526611328125 875.3277587890625 552.6145629882812 866.1725463867188 562.6973266601562 C 858.0363159179688 571.6580200195312 849.3687744140625 580.4230346679688 840.9866333007812 588.8993530273438 C 828.5598754882812 601.4657592773438 815.7099609375 614.4601440429688 804.3831176757812 628.3079223632812 C 791.5975341796875 643.9158935546875 780.0780639648438 661.3760375976562 768.93798828125 678.26123046875 C 757.4768676757812 695.6329956054688 745.6255493164062 713.5962524414062 732.3777465820312 729.5701293945312 C 725.218994140625 738.2021484375 718.2364501953125 745.5794677734375 711.0310668945312 752.1239013671875 C 707.1190795898438 755.6771240234375 703.091064453125 759.0182495117188 699.0589599609375 762.0545654296875 C 694.8244018554688 765.2432250976562 690.4381713867188 768.2066650390625 686.022216796875 770.862548828125 C 679.8861083984375 774.5472412109375 673.4041137695312 777.8290405273438 666.2044067382812 780.896240234375 C 659.8125610351562 783.6193237304688 653.010009765625 786.104248046875 645.407958984375 788.4929809570312 C 631.1484375 792.9738159179688 616.6423950195312 796.3056640625 602.6140747070312 799.5278930664062 C 584.4749755859375 803.7011108398438 568.0987548828125 807.38623046875 551.3765258789062 810.2210083007812 C 531.9942016601562 813.506591796875 514.99267578125 815.103759765625 499.4005432128906 815.103759765625 Z" stroke="none"/>
      <path d="M 499.4005737304688 812.603759765625 C 533.730224609375 812.603759765625 568.3414916992188 804.8475341796875 602.054443359375 797.0913696289062 C 630.5452270507812 790.5472412109375 659.61474609375 783.8035888671875 684.7337646484375 768.72021484375 C 737.8447875976562 736.7777709960938 763.2232055664062 674.6087646484375 802.447998046875 626.7250366210938 C 829.163330078125 594.064208984375 862.9412231445312 567.48876953125 887.0227661132812 532.9526977539062 C 925.8087768554688 477.3675537109375 934.6671752929688 398.5989074707031 898.0560913085938 341.6570129394531 C 873.6154174804688 303.6094665527344 832.9541015625 278.9892272949219 805.0218505859375 243.4354553222656 C 780.5612182617188 212.3111267089844 767.0341186523438 174.2833404541016 748.6387329101562 139.2285614013672 C 726.8715209960938 97.64945220947266 697.243408203125 59.30256652832031 658.0784301757812 33.48523330688477 C 624.8945922851562 11.58827877044678 589.6705932617188 1.75774359703064 555.1149291992188 1.75774359703064 C 484.7289428710938 1.75774359703064 417.1423950195312 42.56354522705078 375.404541015625 105.3108978271484 C 341.8259887695312 155.7683410644531 314.9113159179688 213.2088928222656 266.0099792480469 249.1216735839844 C 235.0252075195312 271.8864440917969 197.4164276123047 284.0968017578125 165.8729858398438 306.04345703125 C 108.3725357055664 345.966552734375 75.69187164306641 418.929443359375 84.231201171875 488.4007873535156 C 91.59331512451172 548.5147705078125 127.0074234008789 602.34423828125 171.5592041015625 643.2448120117188 C 211.5422058105469 680.095458984375 258.687744140625 707.9876708984375 306.1325378417969 734.72265625 L 322.2934265136719 743.78076171875 C 327.8398742675781 746.8932495117188 333.3864135742188 749.94580078125 338.8730773925781 753.0582275390625 L 363.7527465820312 767.0243530273438 C 395.1964111328125 784.6217041015625 427.2985229492188 802.458251953125 462.6726379394531 809.2619018554688 C 474.8433532714844 811.6087036132812 487.1035766601562 812.603759765625 499.4005737304688 812.603759765625 M 499.4005432128906 817.603759765625 C 492.9649658203125 817.603759765625 486.6221923828125 817.3311157226562 480.5483093261719 816.79345703125 C 474.1385498046875 816.2258911132812 467.8058776855469 815.3438110351562 461.7259826660156 814.1714477539062 C 452.9958801269531 812.4923706054688 444.2837524414062 810.1453247070312 435.0940856933594 806.9967041015625 C 426.9463195800781 804.2050170898438 418.6250915527344 800.8486938476562 409.6548767089844 796.7357788085938 C 392.7749938964844 788.9962158203125 376.05908203125 779.6412353515625 361.3108825683594 771.3875732421875 L 361.30810546875 771.3859252929688 L 361.3052978515625 771.3843383789062 L 336.4256591796875 757.418212890625 L 336.415771484375 757.4127807617188 L 336.4059753417969 757.4072265625 C 333.0836486816406 755.5224609375 329.6699829101562 753.621337890625 326.3687438964844 751.7827758789062 C 324.2327575683594 750.59326171875 322.0240783691406 749.3630981445312 319.8465270996094 748.14111328125 L 303.6878662109375 739.084228515625 L 303.682861328125 739.0814819335938 L 303.677978515625 739.0786743164062 C 280.8411865234375 726.210205078125 256.5096435546875 712.20068359375 233.3025360107422 696.9561157226562 C 207.9010925292969 680.27001953125 186.5963134765625 663.903564453125 168.1706390380859 646.9214477539062 C 156.6305389404297 636.3265380859375 145.9083251953125 625.0604248046875 136.3000946044922 613.4342041015625 C 126.2069778442383 601.221435546875 117.2370910644531 588.4796752929688 109.6393127441406 575.5628051757812 C 93.07064819335938 547.3943481445312 82.85231018066406 518.2733154296875 79.268310546875 489.0085754394531 C 77.11009216308594 471.4511108398438 77.47808837890625 453.4213562011719 80.36219787597656 435.4223327636719 C 83.17975616455078 417.8383483886719 88.34809112548828 400.5704650878906 95.7237548828125 384.0982360839844 C 103.0986480712891 367.6275634765625 112.5378646850586 352.2706909179688 123.7792053222656 338.454345703125 C 135.2838745117188 324.3142395019531 148.4868621826172 312.0278015136719 163.0214233398438 301.9363403320312 C 178.4330902099609 291.2134704589844 195.385986328125 282.7106628417969 211.78076171875 274.4879150390625 C 220.54931640625 270.0899963378906 229.6164245605469 265.5423583984375 238.2636413574219 260.7400207519531 C 247.8777618408203 255.4008941650391 255.9851989746094 250.2824554443359 263.0495300292969 245.0923461914062 C 271.781982421875 238.6792297363281 280.0037536621094 231.4386749267578 288.1854248046875 222.9561157226562 C 295.5076599121094 215.3647918701172 302.6300964355469 206.9444580078125 309.9599914550781 197.2141265869141 C 323.6599731445312 179.0274505615234 336.02587890625 158.8869018554688 347.9847717285156 139.4094543457031 C 355.4769897460938 127.206901550293 363.2242126464844 114.5888977050781 371.2419738769531 102.5407867431641 C 381.8048706054688 86.66090393066406 394.0879821777344 72.02323150634766 407.7492980957031 59.03545761108398 C 421.348876953125 46.1064567565918 436.2356567382812 34.88612365722656 451.9959716796875 25.68601226806641 C 467.9547424316406 16.3701229095459 484.7253112792969 9.176567077636719 501.8417663574219 4.305122375488281 C 519.4381713867188 -0.7028775215148926 537.3617553710938 -3.242210865020752 555.1148681640625 -3.242210865020752 C 573.2207641601562 -3.242210865020752 591.1993408203125 -0.5963219404220581 608.5510864257812 4.622011184692383 C 617.4894409179688 7.310011386871338 626.3806762695312 10.72278881072998 634.9779663085938 14.76523399353027 C 643.77294921875 18.90078926086426 652.4716186523438 23.79501152038574 660.8323364257812 29.3119010925293 C 670.57275390625 35.7327880859375 680.0712280273438 43.1512336730957 689.0615234375 51.35979080200195 C 697.6078491210938 59.16300964355469 705.9049682617188 67.87156677246094 713.722412109375 77.24356842041016 C 728.174072265625 94.56923675537109 741.4119873046875 114.6437911987305 753.0684204101562 136.9095611572266 C 758.7550048828125 147.7458953857422 764.0446166992188 159.0011291503906 769.1603393554688 169.8857879638672 C 774.8899536132812 182.0770111083984 780.8146362304688 194.683349609375 787.2590942382812 206.6004486083984 C 790.7073364257812 212.9767913818359 794.0310668945312 218.6651153564453 797.420654296875 223.9905700683594 C 801.2070922851562 229.9398956298828 804.9794311523438 235.2896728515625 808.9530639648438 240.3459014892578 C 814.3889770507812 247.2650146484375 820.8528442382812 254.4192352294922 828.7145385742188 262.2178039550781 C 835.7821044921875 269.2285766601562 843.3161010742188 276.1151123046875 850.6019897460938 282.7747802734375 C 859.8193969726562 291.2001342773438 869.3506469726562 299.912353515625 878.140869140625 309.0525817871094 C 882.906982421875 314.0085754394531 887.072998046875 318.6834411621094 890.876953125 323.3443298339844 C 895.1696166992188 328.6041259765625 898.8941040039062 333.7102355957031 902.2628784179688 338.9546813964844 C 911.478759765625 353.2882385253906 918.1553955078125 369.3324584960938 922.1063232421875 386.639892578125 C 925.86376953125 403.1000061035156 927.1065063476562 420.4408874511719 925.7998657226562 438.180908203125 C 924.5289916992188 455.4345703125 920.8853149414062 472.6311340332031 914.9698486328125 489.2929992675781 C 909.0489501953125 505.9703369140625 901.0257568359375 521.6222534179688 891.1232299804688 535.8139038085938 C 884.8075561523438 544.8712158203125 877.2513427734375 554.2151489257812 868.0234375 564.3779907226562 C 859.851318359375 573.3779907226562 851.1647338867188 582.1622314453125 842.7642211914062 590.6572265625 C 830.378173828125 603.1824340820312 817.570556640625 616.1342163085938 806.3181762695312 629.8906860351562 C 793.6132202148438 645.4003295898438 782.1300048828125 662.8056640625 771.0247802734375 679.6378784179688 C 759.5266723632812 697.0657958984375 747.6370849609375 715.0870361328125 734.3020629882812 731.166015625 C 727.0674438476562 739.8894653320312 720.0053100585938 747.3502197265625 712.7119750976562 753.9745483398438 C 708.7435302734375 757.5790405273438 704.656005859375 760.969482421875 700.5628662109375 764.0516967773438 C 696.2593383789062 767.292236328125 691.80078125 770.3045654296875 687.3107299804688 773.0050048828125 C 681.0733032226562 776.7503662109375 674.4908447265625 780.0833740234375 667.1842041015625 783.1962280273438 C 660.71630859375 785.95166015625 653.8383178710938 788.4644775390625 646.1574096679688 790.8779907226562 C 631.803955078125 795.3883666992188 617.2493286132812 798.7314453125 603.1737670898438 801.9644775390625 C 584.9965209960938 806.1463623046875 568.5826416015625 809.8399047851562 551.79443359375 812.685791015625 C 532.2723999023438 815.9951171875 515.1342163085938 817.603759765625 499.4005432128906 817.603759765625 Z" stroke="none" fill="#e41c38"/>
    </g>
    <path id="Path_48" data-name="Path 48" d="M227.31,375.891c-2.933,3.212,1.875,7.681,5.985,9.238a235.647,235.647,0,0,0,84,15.562l-4.888,8.32a262.2,262.2,0,0,0,137.666.718l-6.943-10.774,40.322-2c6.4-.3,28.87,2.334,33.12-3.352,12.23-16.38-37.549-17.019-42.9-17.238q-79.667-3.332-159.433-2.574-21.747.2-43.494.7C263.881,374.734,231.58,371.342,227.31,375.891Z" transform="translate(861.942 1935.412)" fill="#e41c38" opacity="0.42"/>
    <path id="Path_49" data-name="Path 49" d="M368.618,325.55q-1.616,31.922-3.851,63.965a182.276,182.276,0,0,1-4.19,32.082,93.485,93.485,0,0,1-6.624,18.176c-1.217,2.494-2.953,5.207-5.686,5.487-3.452.359-5.846-3.332-7.083-6.584-6.165-15.961-6.165-33.439-6.564-50.517q-.339-13.248-1.057-26.516c-.579-10.674-1.736-22.226-8.958-30.127-2.195-2.394-4.868-4.349-7.023-6.8-8.8-9.976-6.165-26.795,3.312-36.192,7.362-7.282,28.73-16.9,39.045-10.874C372.189,284.789,369.2,314.038,368.618,325.55Z" transform="translate(947.324 1838.132)" fill="#606161"/>
    <path id="Path_50" data-name="Path 50" d="M341.271,289.217a27.193,27.193,0,0,1,4.13,16.4c-.5,17.338-10.794,32.681-15.961,49.26-7.741,25.039-3.432,51.874-2.654,78.15a24.5,24.5,0,0,1-1.317,10.694,8.958,8.958,0,0,1-8.4,5.746,11.213,11.213,0,0,1-6.684-3.99c-12.689-13.567-12.27-34.257-14.365-52.692-2.354-20.53-8.719-40.362-14.146-60.294-2.454-9-4.749-18.216-4.17-27.513s4.489-18.854,12.17-24.121C303.822,271.32,331.315,274.952,341.271,289.217Z" transform="translate(912.901 1837.933)" fill="#606161"/>
    <rect id="Rectangle_70" data-name="Rectangle 70" width="266.433" height="293.767" rx="12.14" transform="translate(1165.985 1940.204) rotate(180)" fill="#e41c38" opacity="0.52"/>
    <rect id="Rectangle_71" data-name="Rectangle 71" width="266.433" height="293.767" rx="12.14" transform="translate(1165.985 1940.204) rotate(180)" fill="#fff"/>
    <rect id="Rectangle_72" data-name="Rectangle 72" width="193.081" height="132.579" rx="11.56" transform="translate(1483.873 1808.542) rotate(180)" fill="#e41c38" opacity="0.52"/>
    <rect id="Rectangle_74" data-name="Rectangle 74" width="186.009" height="114.083" rx="7.26" transform="translate(1437.945 1750.904) rotate(180)" fill="#e41c38" opacity="0.52"/>
    <rect id="Rectangle_75" data-name="Rectangle 75" width="186.009" height="114.083" rx="7.26" transform="translate(1437.945 1750.904) rotate(180)" fill="#fff"/>
    <rect id="Rectangle_76" data-name="Rectangle 76" width="450.287" height="21.588" transform="translate(1466.696 2098.28) rotate(180)" fill="#e41c38" opacity="0.52"/>
    <rect id="Rectangle_77" data-name="Rectangle 77" width="344.663" height="254.442" rx="12.56" transform="translate(1423.899 2048.92) rotate(180)" fill="#e41c38"/>
    <rect id="Rectangle_78" data-name="Rectangle 78" width="344.663" height="254.442" rx="12.56" transform="translate(1423.899 2048.92) rotate(180)" opacity="0.732" fill="url(#linear-gradient-2)"/>
    <rect id="Rectangle_79" data-name="Rectangle 79" width="68.733" height="5.048" transform="translate(1121.613 1834.321)" fill="url(#linear-gradient-3)"/>
    <rect id="Rectangle_80" data-name="Rectangle 80" width="41.958" height="4.729" transform="translate(1121.613 1844.078)" fill="url(#linear-gradient-4)"/>
    <rect id="Rectangle_81" data-name="Rectangle 81" width="132.02" height="4.768" transform="translate(1180.49 1844.078)" fill="url(#linear-gradient-5)"/>
    <rect id="Rectangle_82" data-name="Rectangle 82" width="74.3" height="4.768" transform="translate(1324.86 1844.078)" fill="url(#linear-gradient-6)"/>
    <rect id="Rectangle_83" data-name="Rectangle 83" width="57.68" height="4.988" transform="translate(1143.44 1853.874)" fill="url(#linear-gradient-7)"/>
    <rect id="Rectangle_84" data-name="Rectangle 84" width="68.733" height="5.048" transform="translate(1161.955 1863.61)" fill="url(#linear-gradient-8)"/>
    <rect id="Rectangle_85" data-name="Rectangle 85" width="57.62" height="5.606" transform="translate(1235.177 1863.61)" fill="url(#linear-gradient-9)"/>
    <rect id="Rectangle_86" data-name="Rectangle 86" width="53.071" height="4.729" transform="translate(1161.855 1873.366)" fill="url(#linear-gradient-10)"/>
    <rect id="Rectangle_87" data-name="Rectangle 87" width="109.534" height="5.247" transform="translate(1220.014 1873.366)" fill="url(#linear-gradient-11)"/>
    <rect id="Rectangle_88" data-name="Rectangle 88" width="68.733" height="5.048" transform="translate(1121.613 1886.574)" fill="url(#linear-gradient-12)"/>
    <rect id="Rectangle_89" data-name="Rectangle 89" width="41.958" height="4.729" transform="translate(1121.613 1896.331)" fill="url(#linear-gradient-13)"/>
    <rect id="Rectangle_90" data-name="Rectangle 90" width="132.02" height="4.768" transform="translate(1180.49 1896.331)" fill="url(#linear-gradient-14)"/>
    <rect id="Rectangle_91" data-name="Rectangle 91" width="74.3" height="4.768" transform="translate(1324.86 1896.331)" fill="url(#linear-gradient-15)"/>
    <rect id="Rectangle_92" data-name="Rectangle 92" width="57.68" height="4.988" transform="translate(1143.44 1906.087)" fill="url(#linear-gradient-16)"/>
    <rect id="Rectangle_93" data-name="Rectangle 93" width="68.733" height="5.048" transform="translate(1161.955 1915.863)" fill="url(#linear-gradient-17)"/>
    <rect id="Rectangle_94" data-name="Rectangle 94" width="57.62" height="5.606" transform="translate(1235.177 1915.863)" fill="url(#linear-gradient-18)"/>
    <rect id="Rectangle_95" data-name="Rectangle 95" width="53.071" height="4.729" transform="translate(1161.855 1925.62)" fill="url(#linear-gradient-19)"/>
    <rect id="Rectangle_96" data-name="Rectangle 96" width="109.534" height="5.247" transform="translate(1220.014 1925.62)" fill="url(#linear-gradient-20)"/>
    <rect id="Rectangle_97" data-name="Rectangle 97" width="68.733" height="5.048" transform="translate(1121.613 1938.808)" fill="url(#linear-gradient-21)"/>
    <rect id="Rectangle_98" data-name="Rectangle 98" width="41.958" height="4.729" transform="translate(1121.613 1948.564)" fill="url(#linear-gradient-22)"/>
    <rect id="Rectangle_99" data-name="Rectangle 99" width="132.02" height="4.768" transform="translate(1180.49 1948.564)" fill="url(#linear-gradient-23)"/>
    <rect id="Rectangle_100" data-name="Rectangle 100" width="74.3" height="4.768" transform="translate(1324.86 1948.564)" fill="url(#linear-gradient-24)"/>
    <rect id="Rectangle_101" data-name="Rectangle 101" width="57.68" height="4.988" transform="translate(1143.44 1958.32)" fill="url(#linear-gradient-25)"/>
    <rect id="Rectangle_102" data-name="Rectangle 102" width="68.733" height="5.048" transform="translate(1161.955 1968.077)" fill="url(#linear-gradient-26)"/>
    <rect id="Rectangle_103" data-name="Rectangle 103" width="57.62" height="5.606" transform="translate(1235.177 1968.077)" fill="url(#linear-gradient-27)"/>
    <rect id="Rectangle_104" data-name="Rectangle 104" width="53.071" height="4.729" transform="translate(1161.855 1977.853)" fill="url(#linear-gradient-28)"/>
    <rect id="Rectangle_105" data-name="Rectangle 105" width="109.534" height="5.247" transform="translate(1220.014 1977.853)" fill="url(#linear-gradient-29)"/>
    <g id="Group_11" data-name="Group 11" transform="translate(1275.54 1652.423)" opacity="0.52">
      <rect id="Rectangle_106" data-name="Rectangle 106" width="34.197" height="2.514" fill="#e41c38"/>
      <rect id="Rectangle_107" data-name="Rectangle 107" width="20.869" height="2.354" transform="translate(0 4.868)" fill="#e41c38"/>
      <rect id="Rectangle_108" data-name="Rectangle 108" width="65.681" height="2.374" transform="translate(29.289 4.868)" fill="#e41c38"/>
      <rect id="Rectangle_109" data-name="Rectangle 109" width="36.97" height="2.374" transform="translate(101.095 4.868)" fill="#e41c38"/>
      <rect id="Rectangle_110" data-name="Rectangle 110" width="28.69" height="2.474" transform="translate(10.854 9.716)" fill="#e41c38"/>
      <rect id="Rectangle_111" data-name="Rectangle 111" width="34.197" height="2.514" transform="translate(20.071 14.585)" fill="#e41c38"/>
      <rect id="Rectangle_112" data-name="Rectangle 112" width="28.65" height="2.793" transform="translate(56.483 14.585)" fill="#e41c38"/>
      <rect id="Rectangle_113" data-name="Rectangle 113" width="26.396" height="2.354" transform="translate(20.011 19.433)" fill="#e41c38"/>
      <rect id="Rectangle_114" data-name="Rectangle 114" width="54.488" height="2.614" transform="translate(48.961 19.433)" fill="#e41c38"/>
      <rect id="Rectangle_115" data-name="Rectangle 115" width="34.197" height="2.514" transform="translate(0 25.997)" fill="#e41c38"/>
      <rect id="Rectangle_116" data-name="Rectangle 116" width="20.869" height="2.354" transform="translate(0 30.845)" fill="#e41c38"/>
      <rect id="Rectangle_117" data-name="Rectangle 117" width="65.681" height="2.374" transform="translate(29.289 30.845)" fill="#e41c38"/>
      <rect id="Rectangle_118" data-name="Rectangle 118" width="36.97" height="2.374" transform="translate(101.095 30.845)" fill="#e41c38"/>
      <rect id="Rectangle_119" data-name="Rectangle 119" width="28.69" height="2.474" transform="translate(10.854 35.693)" fill="#e41c38"/>
      <rect id="Rectangle_120" data-name="Rectangle 120" width="34.197" height="2.514" transform="translate(20.071 40.562)" fill="#e41c38"/>
      <rect id="Rectangle_121" data-name="Rectangle 121" width="28.65" height="2.793" transform="translate(56.483 40.562)" fill="#e41c38"/>
      <rect id="Rectangle_122" data-name="Rectangle 122" width="26.396" height="2.354" transform="translate(20.011 45.41)" fill="#e41c38"/>
      <rect id="Rectangle_123" data-name="Rectangle 123" width="54.488" height="2.614" transform="translate(48.961 45.41)" fill="#e41c38"/>
      <rect id="Rectangle_124" data-name="Rectangle 124" width="34.197" height="2.514" transform="translate(0 51.974)" fill="#e41c38"/>
      <rect id="Rectangle_125" data-name="Rectangle 125" width="20.869" height="2.354" transform="translate(0 56.842)" fill="#e41c38"/>
      <rect id="Rectangle_126" data-name="Rectangle 126" width="65.681" height="2.374" transform="translate(29.289 56.842)" fill="#e41c38"/>
      <rect id="Rectangle_127" data-name="Rectangle 127" width="36.97" height="2.374" transform="translate(101.095 56.842)" fill="#e41c38"/>
      <rect id="Rectangle_128" data-name="Rectangle 128" width="28.69" height="2.474" transform="translate(10.854 61.69)" fill="#e41c38"/>
      <rect id="Rectangle_129" data-name="Rectangle 129" width="34.197" height="2.514" transform="translate(20.071 66.538)" fill="#e41c38"/>
      <rect id="Rectangle_130" data-name="Rectangle 130" width="28.65" height="2.793" transform="translate(56.483 66.538)" fill="#e41c38"/>
      <rect id="Rectangle_131" data-name="Rectangle 131" width="26.396" height="2.354" transform="translate(20.011 71.407)" fill="#e41c38"/>
      <rect id="Rectangle_132" data-name="Rectangle 132" width="54.488" height="2.614" transform="translate(48.961 71.407)" fill="#e41c38"/>
    </g>
    <path id="Path_51" data-name="Path 51" d="M366.019,261.764c1.417,3.99,2.753,8.18,1.875,12.29a11.97,11.97,0,0,1-1.7,3.99c-3.99,6.185-13.447,7.143-19.952,3.432s-10.175-10.814-11.971-17.956a19.3,19.3,0,0,1-.7-7.382c.579-4.329,3.452-7.981,6.444-11.173,3.99-4.15,11.313-9.577,16.679-4.589C361.529,244.846,363.884,255.8,366.019,261.764Z" transform="translate(968.498 1800.942)" fill="url(#linear-gradient-30)"/>
    <path id="Path_52" data-name="Path 52" d="M268.595,259.775a10.255,10.255,0,0,0-1.177,5.367,9.356,9.356,0,0,0,1.4,3.352,26.915,26.915,0,0,0,6.6,7.841,13.707,13.707,0,0,0,9.6,2.973c5.108-.559,9.158-4.609,11.871-8.978a24.6,24.6,0,0,0,4.25-14.086,17.957,17.957,0,0,0-7.342-13.447c-3.851-2.793-11.871-5.327-16.221-2.135S270.77,254.627,268.595,259.775Z" transform="translate(902.737 1801.735)" fill="url(#linear-gradient-31)"/>
    <path id="Path_53" data-name="Path 53" d="M331.854,176.145a4.828,4.828,0,0,1,4.19.738,5.566,5.566,0,0,1,1.377,3.412,24.441,24.441,0,0,1,.3,7.721,10.594,10.594,0,0,1-3.531,6.6,15.284,15.284,0,0,1-5.028,2.434,5.686,5.686,0,0,1-4.31.16,4.968,4.968,0,0,1-2.155-3.691C321.12,185.8,323.534,177.661,331.854,176.145Z" transform="translate(957.313 1738.82)" fill="url(#linear-gradient-32)"/>
    <path id="Path_54" data-name="Path 54" d="M293.312,174.785a4.948,4.948,0,0,0-2.414,0,5.008,5.008,0,0,0-2.873,4.569,21.23,21.23,0,0,0,.359,5.606,15.482,15.482,0,0,0,3.631,8.36,6.783,6.783,0,0,0,8.28,1.437C308.775,188.89,300.794,176.421,293.312,174.785Z" transform="translate(923.211 1737.507)" fill="url(#linear-gradient-33)"/>
    <path id="Path_55" data-name="Path 55" d="M333.78,214.639a17.7,17.7,0,0,1,.319,5.507c-.738,5.108-5.826,8.679-10.934,9.317s-10.215-1.077-14.984-2.973a11.971,11.971,0,0,1-3.99-2.274,8.879,8.879,0,0,1-2.294-4.409,32.023,32.023,0,0,1-.519-8.739l.319-10.295a12.332,12.332,0,0,1,1.157-5.846c2-3.412,6.564-3.99,10.534-4.25,5.207-.219,13.048,0,16.48,4.749S332.9,209.113,333.78,214.639Z" transform="translate(936.453 1753.417)" fill="url(#linear-gradient-34)"/>
    <path id="Path_56" data-name="Path 56" d="M362.924,170.851a24.359,24.359,0,0,1,1.59,12.049,202.057,202.057,0,0,1-3.3,28.051c-1.312,6.964-3.379,14.442-9.56,18.836a39.152,39.152,0,0,0-4.989,3.544c-1.073,1.028-1.829,2.3-2.822,3.42-5.029,5.617-15.166,5.617-22.083,1.878s-11.349-10.153-15.4-16.391c-4.472-6.875-8.9-14.07-9.7-21.99-.656-6.273.994-12.882-1.69-18.712-1.988-4.288-6.1-7.726-7.016-12.28a18.594,18.594,0,0,1,1.232-9.073c1.61-5.157,4.075-11.11,9.938-12.51,4.273-1.028,8.686.921,13.118,1.045,5.645.177,11.389-2.64,16.756-1.045,6.9,2.055,9.938,9.143,16.815,11.447S359.723,164.331,362.924,170.851Z" transform="translate(923.357 1722.033)" fill="#e08142"/>
    <path id="Path_57" data-name="Path 57" d="M406.466,219.17c-20.231-16.779-49.42-16.36-75.457-12.809-10.754,1.456-21.707,3.392-31.164,8.739C284,224.078,274.626,241.436,269.7,258.993c-2.614,9.317-3.99,19.952,1.237,28.132,5.487,8.46,16.42,11.372,26.436,12.49a8.838,8.838,0,0,1,4.349,1.257,7.721,7.721,0,0,1,2.434,4.888c2.793,14.565-2.873,30.925,4.609,43.714,7.242,12.35,23.423,15.6,37.689,16.7,18.455,1.417,38.467.9,53.45-9.976a21.688,21.688,0,0,0,6.2-6.365c2.474-4.23,2.614-9.377,2.673-14.265.16-10.654-3.731-32.082,1.457-41.479,4.349-7.821,16.739-7.861,21.089-16.8C439.566,260.29,418.856,229.425,406.466,219.17Z" transform="translate(902.711 1767.102)" fill="#fff"/>
    <path id="Path_58" data-name="Path 58" d="M320.1,302.191l.14,22.685a4.37,4.37,0,0,1-.479,2.534,3.99,3.99,0,0,1-2.673,1.456c-6.145,1.437-12.569.618-18.874.638s-13.108,1.137-17.637,5.547c6.883,5.088,15.762,6.484,24.281,7.482q18.914,2.255,37.908,2.993a98.181,98.181,0,0,0,24.56-1.277,45.55,45.55,0,0,0,19.473-9.078c-5.567-5.985-14.784-5.866-22.924-5.866a208.985,208.985,0,0,1-23.7-1.357,6.484,6.484,0,0,1-4.768-2,6.324,6.324,0,0,1-.758-3.891,78.747,78.747,0,0,1,1.9-14.964,9.477,9.477,0,0,1,1.9-4.449,10.535,10.535,0,0,1,6.345-2.514,138.362,138.362,0,0,0,27.034-7.382,30.824,30.824,0,0,0,9.876-5.447c7.861-7.143,7.522-19.453,5.706-29.927a100.377,100.377,0,0,1-47.525,13.527c-11.432.319-36.232-4.589-44.272,6.424-3.99,5.566.259,10.714,4.669,14.565C302.188,293.532,320.1,301.972,320.1,302.191Z" transform="translate(915.852 1819.851)" fill="url(#linear-gradient-35)"/>
    <rect id="Rectangle_133" data-name="Rectangle 133" width="114.482" height="81.143" rx="16.79" transform="translate(1195.933 2018.953)" fill="#e41c38"/>
    <rect id="Rectangle_134" data-name="Rectangle 134" width="114.482" height="81.143" rx="16.79" transform="translate(1195.933 2018.953)" fill="url(#linear-gradient-36)"/>
    <rect id="Rectangle_135" data-name="Rectangle 135" width="114.482" height="81.143" rx="16.79" transform="translate(1195.933 2026.415)" fill="#e41c38"/>
    <path id="Path_59" data-name="Path 59" d="M339.257,266.691a43.753,43.753,0,0,1-10.734,3.192c-9.976,1.836-21.628,1.436-28.81-5.806a12.809,12.809,0,0,1-2.693-3.831c-2-4.848.618-10.694,4.908-13.766s9.736-3.891,14.984-4.15c6.424-.319,18.635-1.417,24.241,2.913C347.856,250.43,346.819,263.139,339.257,266.691Z" transform="translate(931.534 1804.515)" fill="url(#linear-gradient-37)"/>
    <rect id="Rectangle_136" data-name="Rectangle 136" width="15.622" height="128.967" rx="3.91" transform="translate(1259.079 2187.723) rotate(180)" fill="#fff"/>
    <path id="Path_60" data-name="Path 60" d="M342.405,359c3.99,3.292,4.988,9,6.744,13.966,2.434,6.784,6.943,12.949,7.542,20.131a11.253,11.253,0,0,1-1.018,6.225,9.976,9.976,0,0,1-8.659,4.868,18.955,18.955,0,0,1-9.836-2.993,34.5,34.5,0,0,1-12.45-12.789,21.947,21.947,0,0,1-2.833-8.42C321.077,370.988,330.414,349.421,342.405,359Z" transform="translate(956.917 1918.588)" fill="#e41c38"/>
    <path id="Path_61" data-name="Path 61" d="M349.174,390.5a3.611,3.611,0,0,1,0,3.412,3.093,3.093,0,0,1-1.736.938,11.173,11.173,0,0,1-7.981-1.456,32.457,32.457,0,0,1-6.424-5.168,46.749,46.749,0,0,1-7.8-8.819,15.96,15.96,0,0,1-2.534-11.273c2.115-10.814,11.652-1.117,15.163,2.873A57.858,57.858,0,0,1,349.174,390.5Z" transform="translate(957.589 1925.149)" fill="#606161"/>
    <path id="Path_62" data-name="Path 62" d="M300.167,359.122c-3.99,3.292-4.988,9-6.744,13.966-2.434,6.784-6.943,12.969-7.542,20.131a11.333,11.333,0,0,0,1.018,6.245,9.976,9.976,0,0,0,8.659,4.848,18.755,18.755,0,0,0,9.836-2.993,34.337,34.337,0,0,0,12.45-12.789,21.827,21.827,0,0,0,2.833-8.42C321.475,371.113,312.138,349.465,300.167,359.122Z" transform="translate(921.044 1918.683)" fill="#e41c38"/>
    <path id="Path_63" data-name="Path 63" d="M288.97,390.9a3.671,3.671,0,0,0,0,3.412,3.152,3.152,0,0,0,1.756.938,11.392,11.392,0,0,0,7.981-1.457,33.215,33.215,0,0,0,6.4-5.167,46.347,46.347,0,0,0,7.821-8.839,15.961,15.961,0,0,0,2.534-11.253c-2.135-10.834-11.652-1.137-15.183,2.873A58.1,58.1,0,0,0,288.97,390.9Z" transform="translate(923.782 1925.53)" fill="#606161"/>
    <path id="Path_64" data-name="Path 64" d="M330.37,352.588a21.029,21.029,0,0,1-10.315,2,45.255,45.255,0,0,1-11.732-.858,8.2,8.2,0,0,1-3.551-1.656,8.1,8.1,0,0,1-2-2.833c-3.252-7.183-6.923-22.066-1.875-28.112,5.766-6.943,28.65-8.16,35.913-.878C343.857,327.07,338.749,347.66,330.37,352.588Z" transform="translate(933.598 1877.513)" fill="#e41c38"/>
    <path id="Path_65" data-name="Path 65" d="M330.37,352.588a21.029,21.029,0,0,1-10.315,2,45.255,45.255,0,0,1-11.732-.858,8.2,8.2,0,0,1-3.551-1.656,8.1,8.1,0,0,1-2-2.833c-3.252-7.183-6.923-22.066-1.875-28.112,5.766-6.943,28.65-8.16,35.913-.878C343.857,327.07,338.749,347.66,330.37,352.588Z" transform="translate(933.598 1877.513)" fill="url(#linear-gradient-38)"/>
    <rect id="Rectangle_137" data-name="Rectangle 137" width="10.415" height="67.197" transform="translate(1258.501 2297.596) rotate(180)" fill="#fff"/>
    <path id="Path_66" data-name="Path 66" d="M384.277,374.81c2.314,1.9,4.569,4.27,7.542,4.629,2.155.239,4.31-.678,6.5-.678A12.211,12.211,0,0,1,406,382.212a12.989,12.989,0,0,1,4.23,5.986c1.616,5.507-3.292,11.532-9.018,12.091s-11.233-3.352-13.747-8.5a18.751,18.751,0,0,0-2.115-3.99,11.59,11.59,0,0,0-2.853-2.235,83.561,83.561,0,0,0-27.593-10.913c-1.7-.339-3.771-.5-4.848.838a4.709,4.709,0,0,0-.818,2.594,91.226,91.226,0,0,0-.539,11.971,4.53,4.53,0,0,0,.419,2.235A7.981,7.981,0,0,0,351,394.143a7.781,7.781,0,0,1,1.037,9.277,14.206,14.206,0,0,1-7.8,5.985c-3.831,1.417-8.659,1.656-11.512-1.277a8.2,8.2,0,0,1-1.5-8.459,12.669,12.669,0,0,1,5.986-6.5,5.186,5.186,0,0,0,2.354-1.8,4.628,4.628,0,0,0,.359-2.394l-.279-8.9a4.289,4.289,0,0,0-1.357-3.691,3.991,3.991,0,0,0-2.594-.379,77.811,77.811,0,0,0-40.5,15.183c2.155,1.676,1.776,5.307-.16,7.223a10.494,10.494,0,0,1-7.621,2.354,15.263,15.263,0,0,1-8.519-2.494,8.819,8.819,0,0,1-3.99-7.661,8.918,8.918,0,0,1,5.327-7.023,15.961,15.961,0,0,1,9.038-.978,18.417,18.417,0,0,0,4.768.379,14.425,14.425,0,0,0,5.028-2.095,111.451,111.451,0,0,1,44.951-13.966C357.262,365.752,373.563,366.031,384.277,374.81Z" transform="translate(910.197 1928.373)" fill="#fff"/>
    <rect id="Rectangle_138" data-name="Rectangle 138" width="170.007" height="126.074" rx="11.02" transform="translate(1569.187 2034.575) rotate(180)" fill="#fff"/>
    <rect id="Rectangle_139" data-name="Rectangle 139" width="195.466" height="71.706" rx="10.67" transform="translate(1102.24 2045.01) rotate(180)" fill="#fff"/>
    <path id="Path_67" data-name="Path 67" d="M152.62,95.528,202.359,69.91v7.422l-41.9,20.889v.239l41.9,20.989v7.422L152.62,101.254Z" transform="translate(788.511 1633.29)" fill="#e41c38"/>
    <path id="Path_68" data-name="Path 68" d="M181,139.471,210.927,61.66h7.282l-29.927,77.811Z" transform="translate(816.754 1625.079)" fill="#e41c38"/>
    <path id="Path_69" data-name="Path 69" d="M252.819,101.633,203.06,127.151v-7.6L245.278,98.56v-.339L203.06,77.232V69.91l49.759,25.518Z" transform="translate(838.707 1633.29)" fill="#e41c38"/>
    <rect id="Rectangle_140" data-name="Rectangle 140" width="166.536" height="51.655" rx="12.55" transform="translate(1332.501 2205.46) rotate(180)" fill="#e41c38"/>
    <rect id="Rectangle_141" data-name="Rectangle 141" width="166.536" height="51.655" rx="12.55" transform="translate(1332.501 2205.46) rotate(180)" fill="url(#linear-gradient-39)"/>
    <g id="Group_12" data-name="Group 12" transform="translate(1418.054 1941.122)" opacity="0.52">
      <rect id="Rectangle_142" data-name="Rectangle 142" width="45.49" height="3.332" fill="#e41c38"/>
      <rect id="Rectangle_143" data-name="Rectangle 143" width="27.773" height="3.132" transform="translate(0 6.444)" fill="#e41c38"/>
      <rect id="Rectangle_144" data-name="Rectangle 144" width="87.368" height="3.152" transform="translate(38.965 6.444)" fill="#e41c38"/>
      <rect id="Rectangle_145" data-name="Rectangle 145" width="38.187" height="3.312" transform="translate(14.445 12.929)" fill="#e41c38"/>
      <rect id="Rectangle_146" data-name="Rectangle 146" width="45.49" height="3.332" transform="translate(26.695 19.373)" fill="#e41c38"/>
      <rect id="Rectangle_147" data-name="Rectangle 147" width="38.127" height="3.711" transform="translate(75.138 19.373)" fill="#e41c38"/>
      <rect id="Rectangle_148" data-name="Rectangle 148" width="35.135" height="3.132" transform="translate(26.615 25.837)" fill="#e41c38"/>
      <rect id="Rectangle_149" data-name="Rectangle 149" width="72.484" height="3.472" transform="translate(65.122 25.837)" fill="#e41c38"/>
      <rect id="Rectangle_150" data-name="Rectangle 150" width="45.49" height="3.332" transform="translate(0 34.576)" fill="#e41c38"/>
      <rect id="Rectangle_151" data-name="Rectangle 151" width="27.773" height="3.132" transform="translate(0 41.02)" fill="#e41c38"/>
      <rect id="Rectangle_152" data-name="Rectangle 152" width="87.368" height="3.152" transform="translate(38.965 41.02)" fill="#e41c38"/>
      <rect id="Rectangle_153" data-name="Rectangle 153" width="38.187" height="3.312" transform="translate(14.445 47.485)" fill="#e41c38"/>
      <rect id="Rectangle_154" data-name="Rectangle 154" width="45.49" height="3.332" transform="translate(26.695 53.949)" fill="#e41c38"/>
      <rect id="Rectangle_155" data-name="Rectangle 155" width="38.127" height="3.711" transform="translate(75.138 53.949)" fill="#e41c38"/>
      <rect id="Rectangle_156" data-name="Rectangle 156" width="35.135" height="3.132" transform="translate(26.615 60.413)" fill="#e41c38"/>
      <rect id="Rectangle_157" data-name="Rectangle 157" width="72.484" height="3.472" transform="translate(65.122 60.413)" fill="#e41c38"/>
    </g>
    <g id="Group_13" data-name="Group 13" transform="translate(936.941 1989.105)" opacity="0.52">
      <rect id="Rectangle_158" data-name="Rectangle 158" width="45.49" height="3.332" fill="#e41c38"/>
      <rect id="Rectangle_159" data-name="Rectangle 159" width="27.773" height="3.132" transform="translate(0 6.464)" fill="#e41c38"/>
      <rect id="Rectangle_160" data-name="Rectangle 160" width="87.368" height="3.152" transform="translate(38.965 6.464)" fill="#e41c38"/>
      <rect id="Rectangle_161" data-name="Rectangle 161" width="38.187" height="3.312" transform="translate(14.445 12.929)" fill="#e41c38"/>
      <rect id="Rectangle_162" data-name="Rectangle 162" width="45.49" height="3.332" transform="translate(26.695 19.393)" fill="#e41c38"/>
      <rect id="Rectangle_163" data-name="Rectangle 163" width="38.127" height="3.711" transform="translate(75.158 19.393)" fill="#e41c38"/>
      <rect id="Rectangle_164" data-name="Rectangle 164" width="35.135" height="3.132" transform="translate(26.635 25.837)" fill="#e41c38"/>
      <rect id="Rectangle_165" data-name="Rectangle 165" width="72.484" height="3.472" transform="translate(65.122 25.837)" fill="#e41c38"/>
      <rect id="Rectangle_166" data-name="Rectangle 166" width="45.49" height="3.332" transform="translate(0 34.576)" fill="#e41c38"/>
      <rect id="Rectangle_167" data-name="Rectangle 167" width="27.773" height="3.132" transform="translate(0 41.04)" fill="#e41c38"/>
      <rect id="Rectangle_168" data-name="Rectangle 168" width="87.368" height="3.152" transform="translate(38.965 41.04)" fill="#e41c38"/>
    </g>
    <path id="Path_70" data-name="Path 70" d="M201.945,378.916c-6.6-13.048-14.684-26.6-13.128-41.14.938-8.8,5.387-16.779,9.736-24.5l19.592-34.736c5.985,7.781,15.842,12.51,19.792,21.488,6.345,14.425-5.985,30.386-5.327,46.128.439,12.111,8.479,23.144,7.981,35.254-.319,8.8-14.245,37.629-25.518,36.531C209.108,417.363,205.7,386.3,201.945,378.916Z" transform="translate(824.339 1840.909)" fill="#e41c38"/>
    <path id="Path_71" data-name="Path 71" d="M201.945,378.916c-6.6-13.048-14.684-26.6-13.128-41.14.938-8.8,5.387-16.779,9.736-24.5l19.592-34.736c5.985,7.781,15.842,12.51,19.792,21.488,6.345,14.425-5.985,30.386-5.327,46.128.439,12.111,8.479,23.144,7.981,35.254-.319,8.8-14.245,37.629-25.518,36.531C209.108,417.363,205.7,386.3,201.945,378.916Z" transform="translate(824.339 1840.909)" fill="url(#linear-gradient-40)"/>
    <path id="Path_72" data-name="Path 72" d="M253.418,326.069c4.449,0,9.976.9,11.253,5.187,1.038,3.751-2.255,7.2-5.387,9.517-10.913,7.981-24.58,14.106-29.927,26.536-8.878,20.63-34.017,7.4-21.009-10.454,5.387-7.382,9.976-17.3,16.68-23.463C232.728,326.268,243.5,325.949,253.418,326.069Z" transform="translate(840.323 1888.19)" fill="#e41c38"/>
    <path id="Path_73" data-name="Path 73" d="M253.418,326.069c4.449,0,9.976.9,11.253,5.187,1.038,3.751-2.255,7.2-5.387,9.517-10.913,7.981-24.58,14.106-29.927,26.536-8.878,20.63-34.017,7.4-21.009-10.454,5.387-7.382,9.976-17.3,16.68-23.463C232.728,326.268,243.5,325.949,253.418,326.069Z" transform="translate(840.323 1888.19)" fill="url(#linear-gradient-41)"/>
    <path id="Path_74" data-name="Path 74" d="M211.743,337.031c-5.008-5.706-12.45-8.519-19.553-11.153-3.372-1.237-7.7-2.255-9.976.459a6.265,6.265,0,0,0,0,7.242,22.625,22.625,0,0,0,5.646,5.287,35.633,35.633,0,0,1,10.475,12.15c2.534,5.168,3.212,11.053,5.467,16.36s6.963,10.315,12.709,10.076a11.452,11.452,0,0,0,9.816-8.08c2.235-6.883-.738-9.976-4.429-14.844C217.809,349.122,216.312,342.2,211.743,337.031Z" transform="translate(816.816 1886.765)" fill="#e41c38"/>
    <path id="Path_75" data-name="Path 75" d="M211.743,337.031c-5.008-5.706-12.45-8.519-19.553-11.153-3.372-1.237-7.7-2.255-9.976.459a6.265,6.265,0,0,0,0,7.242,22.625,22.625,0,0,0,5.646,5.287,35.633,35.633,0,0,1,10.475,12.15c2.534,5.168,3.212,11.053,5.467,16.36s6.963,10.315,12.709,10.076a11.452,11.452,0,0,0,9.816-8.08c2.235-6.883-.738-9.976-4.429-14.844C217.809,349.122,216.312,342.2,211.743,337.031Z" transform="translate(816.816 1886.765)" fill="url(#linear-gradient-42)"/>
    <path id="Path_76" data-name="Path 76" d="M244.243,346.82l-6.724,62.907H230.4c-5.487-3.112-11.033-6.165-16.58-9.277l-16.161-9.058L191.93,346.82Z" transform="translate(827.631 1908.858)" fill="#e41c38"/>
    <path id="Path_77" data-name="Path 77" d="M244.243,346.82l-6.724,62.907H230.4c-5.487-3.112-11.033-6.165-16.58-9.277l-16.161-9.058L191.93,346.82Z" transform="translate(827.631 1908.858)" fill="url(#linear-gradient-43)"/>
  </g>
</svg>
