<svg xmlns="http://www.w3.org/2000/svg" xmlns:xlink="http://www.w3.org/1999/xlink" width="869.921" height="690.271" viewBox="0 0 869.921 690.271"><defs><linearGradient id="a" y1="0.06" x2="0.917" y2="1.111" gradientUnits="objectBoundingBox"><stop offset="0" stop-color="#001a33"/><stop offset="1" stop-color="#fff"/></linearGradient><linearGradient id="b" x1="0.116" y1="-3.219" x2="1.111" y2="-3.219" gradientUnits="objectBoundingBox"><stop offset="0" stop-color="#e5c6d6"/><stop offset="0.42" stop-color="#ead4d0"/><stop offset="1" stop-color="#f0e9cb"/></linearGradient><linearGradient id="c" x1="0.036" y1="0.131" x2="1.035" y2="0.131" xlink:href="#b"/><linearGradient id="d" x1="0.507" y1="-2.116" x2="0.554" y2="-1.324" gradientUnits="objectBoundingBox"><stop offset="0" stop-color="#010101" stop-opacity="0"/><stop offset="0.95" stop-color="#010101"/></linearGradient><linearGradient id="e" x1="0.501" y1="-41.704" x2="0.501" y2="-49.303" xlink:href="#d"/><linearGradient id="f" x1="0.5" x2="0.5" y2="0.797" gradientUnits="objectBoundingBox"><stop offset="0" stop-color="#e41c38"/><stop offset="1" stop-color="#720e1c"/></linearGradient><linearGradient id="g" x1="-0.001" y1="-5.914" x2="1" y2="-5.914" xlink:href="#d"/><linearGradient id="h" x1="0.001" y1="-3.747" x2="0.999" y2="-3.747" gradientUnits="objectBoundingBox"><stop offset="0" stop-color="#fff" stop-opacity="0"/><stop offset="0.95" stop-color="#fff"/></linearGradient><linearGradient id="i" x1="0.045" y1="-18.322" x2="1.045" y2="-18.322" xlink:href="#b"/><linearGradient id="j" x1="0.055" y1="-14.272" x2="1.054" y2="-14.272" xlink:href="#b"/></defs><g transform="translate(-960 -450)"><path d="M737.283,406.562c-10.592-10.91-24.6-16.652-37.927-23.16-72.949-36.367-130.693-109.484-153.927-195.042C532.1,139.553,527.149,82.9,492.3,50.358c-22.38-20.863-52.448-26.988-81.32-30.816a753.111,753.111,0,0,0-148.29-4.977c-43.564,2.68-88.325,9.762-126.08,34.261C67.417,93.807,35.641,199.462,66.392,282.149c5.979,16.269,14.18,32.347,13.838,49.957-.683,23.926-16.913,43.257-26.993,64.5C-.236,510.112,121.232,639.693,212.29,666.873c41.173,12.25,85.762,7.656,127.789,9.762,65.09,3.254,150.34,31.582,213.209,7.465,18.792-7.273,34.852-21.246,50.569-35.027l77.733-67.949c24.943-21.82,50.74-44.6,65.261-76.179S760.689,430.3,737.283,406.562Zm-422.318-109.1c1.708-7.656,6.834-11.484,13.667-11.484C321.8,285.977,316.674,289.805,314.965,297.462Z" transform="translate(1029.424 444.042)" stroke="#001a33" stroke-width="5" fill="url(#a)"/><path d="M292.843,139.129H175.134c-5.979,0-10.934-5.809-10.934-13.155V48.755c0-7.175,4.784-13.155,10.934-13.155H292.843c5.979,0,10.934,5.809,10.934,13.155V125.8C303.606,133.15,298.822,139.129,292.843,139.129Z" transform="translate(1076.32 475.219)" fill="#e41c38" opacity="0.24"/><path d="M488.305,254.64h-196.3c-10.08,0-18.109-8.713-18.109-19.647V119.847c0-10.763,8.03-19.647,18.109-19.647h196.3c10.08,0,18.109,8.713,18.109,19.647V234.993C506.414,245.927,498.214,254.64,488.305,254.64Z" transform="translate(1154.033 520.982)" fill="#e41c38" opacity="0.24"/><path d="M234.674,278.614H83.309c-7.859,0-14.009-6.834-14.009-15.2V173.2c0-8.371,6.321-15.2,14.009-15.2H234.674c7.859,0,14.009,6.834,14.009,15.2v90.2C248.683,271.78,242.362,278.614,234.674,278.614Z" transform="translate(1009.093 561.928)" fill="#e41c38" opacity="0.24"/><path d="M614.847,282.841H341.5a45.059,45.059,0,0,1-45.1-45.1V45.2A45.059,45.059,0,0,1,341.5.1H614.847a45.059,45.059,0,0,1,45.1,45.1V237.569A45.2,45.2,0,0,1,614.847,282.841ZM341.5,6.763A38.5,38.5,0,0,0,303.063,45.2V237.569A38.5,38.5,0,0,0,341.5,276.008H614.847a38.5,38.5,0,0,0,38.439-38.439V45.2A38.5,38.5,0,0,0,614.847,6.763Z" transform="translate(1169.972 450.071)" fill="#e41c38" opacity="0.63"/><path d="M254.506,122.563H143.63a20.27,20.27,0,0,1-20.33-20.33V24.33A20.27,20.27,0,0,1,143.63,4H254.506a20.269,20.269,0,0,1,20.33,20.33V102.4A20.455,20.455,0,0,1,254.506,122.563ZM143.63,10.834a13.525,13.525,0,0,0-13.5,13.5V102.4a13.525,13.525,0,0,0,13.5,13.5H254.506A13.525,13.525,0,0,0,268,102.4V24.33a13.636,13.636,0,0,0-13.5-13.5H143.63Z" transform="translate(1047.347 452.834)" fill="#e41c38" opacity="0.63"/><path d="M223.882,274.688a13.45,13.45,0,0,0,1.708,6.321,7.8,7.8,0,0,0,3.588,2.733c6.492,2.733,13.667-.342,20.159-3.417a16.816,16.816,0,0,0,7.517-5.467,21.4,21.4,0,0,0,2.563-10.421,176.383,176.383,0,0,0-1.538-35.535,22.342,22.342,0,0,0-2.563-8.713c-3.246-4.784-9.055-5.467-14.351-5.638-13.155-.513-17.084-2.563-17.767,13.5A265.857,265.857,0,0,0,223.882,274.688Z" transform="translate(1117.606 601.73)" fill="url(#b)"/><path d="M205.766,241.743a75,75,0,0,0,12.984,20.843c21.184,23.063,56.207,23.747,78.074,1.708a61.589,61.589,0,0,0,6.663-8.029c8.2-11.959,11.788-26.651,14.18-41.173,2.05-12.642,3.588-25.968.342-38.439-4.1-16.23-16.059-29.726-30.41-37.414s-30.922-9.909-46.981-8.713c-10.08.854-20.159,2.9-28.872,8.2-17.255,10.25-18.109,24.43-17.255,43.052C195.516,202.279,197.737,222.951,205.766,241.743Z" transform="translate(1097.623 542.25)" fill="url(#c)"/><path d="M241.566,124.8c4.211-3.758,9.175-7.688,15.342-8.371s13.236,3.758,12.033,8.884c9.626-3.929,20.757-7.175,30.533-3.588a22.739,22.739,0,0,1,14.74,17.767c1.2,7.517-1.5,15.2-5.716,21.7a38.252,38.252,0,0,1-9.175,10.421c-8.874,6.663-21.057,8.371-32.789,9.567-19.854,2.05-40.31,2.733-59.412-2.563-5.716-1.538-12.935-3.417-17.147.342-3.159,2.733-4.061,8.2-8.573,8.2-3.61,0-5.264-3.758-5.716-7a49.2,49.2,0,0,1,2.557-21.867c4.362-12.3,14.74-21.7,30.684-21.7C223.667,136.759,231.338,134.2,241.566,124.8Z" transform="translate(1113.261 520.43)" fill="#e08142"/><path d="M199.6,170.875V167.8" transform="translate(1101.398 568.871)" fill="none" stroke="#001a33" stroke-miterlimit="10" stroke-width="3.95"/><path d="M206.8,177.6" transform="translate(1106.499 575.813)" fill="none" stroke="#001a33" stroke-miterlimit="10" stroke-width="3.95"/><path d="M218.1,177.6" transform="translate(1114.504 575.813)" fill="none" stroke="#001a33" stroke-miterlimit="10" stroke-width="3.95"/><path d="M225.3,169.6" transform="translate(1119.604 570.146)" fill="none" stroke="#001a33" stroke-miterlimit="10" stroke-width="3.95"/><rect width="15.034" height="4.784" transform="translate(1288.698 736.5)" fill="#001a33"/><rect width="15.888" height="3.758" transform="translate(1402.819 737.525)" fill="#001a33"/><path d="M291.868,233.664c46.3-6.663,95.329,16.913,119.418,57.061,8.03,13.326,13.326,28.36,22.209,41.173,9.4,13.667,22.209,24.43,32.972,36.9a143.63,143.63,0,0,1,21.526,33.485c5.125,10.934,8.713,24.772,1.879,34.851-6.321,9.225-18.792,11.446-29.9,12.3-22.209,1.708-44.589,1.2-66.97.512l-219.189-5.467c-9.738-.171-19.818-.513-28.872-4.1s-17.084-11.446-18.28-21.184c-1.708-14.18,10.934-25.284,20.5-36.047,27.505-31.435,33.656-77.049,60.307-109.167a108.83,108.83,0,0,1,81.149-38.952" transform="translate(1049.619 614.736)" fill="#e41c38"/><path d="M291.868,233.664c46.3-6.663,95.329,16.913,119.418,57.061,8.03,13.326,13.326,28.36,22.209,41.173,9.4,13.667,22.209,24.43,32.972,36.9a143.63,143.63,0,0,1,21.526,33.485c5.125,10.934,8.713,24.772,1.879,34.851-6.321,9.225-18.792,11.446-29.9,12.3-22.209,1.708-44.589,1.2-66.97.512l-219.189-5.467c-9.738-.171-19.818-.513-28.872-4.1s-17.084-11.446-18.28-21.184c-1.708-14.18,10.934-25.284,20.5-36.047,27.505-31.435,33.656-77.049,60.307-109.167a108.83,108.83,0,0,1,81.149-38.952" transform="translate(1049.619 614.736)" fill="url(#d)"/><rect width="198.346" height="13.326" transform="translate(1265.121 1048.284)" fill="#e41c38"/><rect width="198.346" height="13.326" transform="translate(1265.121 1048.284)" fill="url(#e)"/><path d="M181.793,221.6H423.362a35.143,35.143,0,0,1,35.193,35.193V375.015a35.143,35.143,0,0,1-35.193,35.193H181.793A35.143,35.143,0,0,1,146.6,375.015V256.793A35.252,35.252,0,0,1,181.793,221.6Z" transform="translate(1063.852 606.983)" fill="#e41c38"/><path d="M181.793,225H423.362a35.143,35.143,0,0,1,35.193,35.193V378.415a35.143,35.143,0,0,1-35.193,35.193H181.793A35.143,35.143,0,0,1,146.6,378.415V260.193A35.143,35.143,0,0,1,181.793,225Z" transform="translate(1063.852 609.392)" stroke="#707070" stroke-width="1" fill="url(#f)"/><path d="M210.9,358.611,244.043,291.3h30.41l4.271,68.336Z" transform="translate(1109.403 656.359)" opacity="0.26" fill="url(#g)"/><path d="M281.653,405.251H222.2L236.038,291.3h30.41Z" transform="translate(1117.408 656.359)" fill="#e41c38"/><path d="M283.423,405.251H223.8L237.809,291.3h30.41Z" transform="translate(1118.541 656.359)" fill="url(#h)"/><path d="M340.156,0H613.5a41.814,41.814,0,0,1,41.856,41.856V234.223A41.669,41.669,0,0,1,613.5,275.908H340.156A41.778,41.778,0,0,1,298.3,234.223V41.856A41.814,41.814,0,0,1,340.156,0Z" transform="translate(1171.318 450)" fill="#fff"/><path d="M213.038,279.046H31.093A31.1,31.1,0,0,1,0,247.953V119.993A31.1,31.1,0,0,1,31.093,88.9H213.038a31.1,31.1,0,0,1,31.093,31.093v127.96A30.988,30.988,0,0,1,213.038,279.046ZM31.093,95.563a24.425,24.425,0,0,0-24.43,24.43v127.96a24.425,24.425,0,0,0,24.43,24.43H213.038a24.425,24.425,0,0,0,24.43-24.43V119.993a24.425,24.425,0,0,0-24.43-24.43H31.093Z" transform="translate(960 512.977)" fill="#e41c38" opacity="0.63"/><path d="M29.747,88.2H211.692a27.852,27.852,0,0,1,27.847,27.847v127.96a27.852,27.852,0,0,1-27.847,27.847H29.747A27.852,27.852,0,0,1,1.9,244.007V116.047A27.852,27.852,0,0,1,29.747,88.2Z" transform="translate(961.346 512.482)" fill="#fff"/><path d="M141.913,4.1H252.789A16.843,16.843,0,0,1,269.7,21.013V99.087A16.843,16.843,0,0,1,252.789,116H141.913A16.843,16.843,0,0,1,125,99.087V21.013A16.952,16.952,0,0,1,141.913,4.1Z" transform="translate(1048.551 452.904)" fill="#fff"/><path d="M135.8,45.392,172.36,26.6v5.467L141.609,47.443v.171L172.36,62.989v5.467L135.8,49.663Z" transform="translate(1056.202 468.844)" fill="#e41c38"/><path d="M160.1,76.732,182.138,19.5h5.3L165.4,76.732Z" transform="translate(1073.416 463.814)" fill="#e41c38"/><path d="M215.56,49.834,179,68.627V63.16l30.922-15.376v-.342L179,32.067V26.6l36.56,18.792Z" transform="translate(1086.805 468.844)" fill="#e41c38"/><path d="M239.858,336c-7.859-1.538-15.888-.171-23.918.171-7.688.171-15.376-.683-22.893,0s-15.547,3.417-20.33,9.225a20.256,20.256,0,0,0-4.613,13.5,11.628,11.628,0,0,0,1.367,5.3c2.05,3.417,6.492,4.271,10.25,4.954a5.647,5.647,0,0,0,2.392,0c2.733-.683,3.758-4.271,6.321-5.809a8.341,8.341,0,0,1,5.3-.854c19.988.342,39.977.342,60.136-.171a7.788,7.788,0,0,0,3.929-.854c5.467-3.417-.854-11.1-2.734-14.692A22.271,22.271,0,0,0,239.858,336Z" transform="translate(1079.078 687.515)" fill="url(#i)"/><path d="M259.94,348.306c-2.733,3.758-4.271,9.738-.513,12.642,3.417,2.563,8.2.513,11.275-2.392s5.979-6.492,10.08-7.346c.683,3.588,1.367,7.517,4.442,9.567,4.442,3.246,10.592.513,16.059.513,4.954,0,10.592,2.392,14.521-.854,2.05-1.708,4.271-4.784,6.321-3.246a5,5,0,0,1,1.2,2.05,58.063,58.063,0,0,0,8.2,16.23c2.563,1.025,4.442-2.392,4.784-5.125a75.755,75.755,0,0,0,.854-22.38c-.342-4.1-1.367-8.542-4.271-11.617-3.929-3.929-10.08-4.1-15.547-3.929l-22.038.342C282.32,333.1,268.141,337.2,259.94,348.306Z" transform="translate(1142.196 685.457)" fill="url(#j)"/><path d="M270.065,270.568A21.782,21.782,0,1,1,248.2,248.7a23.153,23.153,0,0,1,3.417.342,21.569,21.569,0,0,0,18.28,20.672A1.857,1.857,0,0,1,270.065,270.568Z" transform="translate(1120.453 626.181)" fill="#e41c38"/><g transform="translate(1515.232 486.56)" opacity="0.52"><rect width="91.229" height="6.663" fill="#e41c38"/><rect width="55.694" height="6.321" transform="translate(0 12.984)" fill="#e41c38"/><rect width="175.283" height="6.321" transform="translate(78.074 12.984)" fill="#e41c38"/><rect width="76.537" height="6.663" transform="translate(28.872 25.968)" fill="#e41c38"/><rect width="91.229" height="6.663" transform="translate(53.473 38.952)" fill="#e41c38"/><rect width="76.537" height="7.346" transform="translate(150.681 38.952)" fill="#e41c38"/><rect width="70.386" height="6.321" transform="translate(53.302 51.765)" fill="#e41c38"/><rect width="145.385" height="7.004" transform="translate(130.522 51.765)" fill="#e41c38"/><rect width="91.229" height="6.663" transform="translate(0 69.361)" fill="#e41c38"/><rect width="55.694" height="6.321" transform="translate(0 82.345)" fill="#e41c38"/><rect width="175.283" height="6.321" transform="translate(78.074 82.345)" fill="#e41c38"/><rect width="76.537" height="6.663" transform="translate(28.872 95.158)" fill="#e41c38"/><rect width="91.229" height="6.663" transform="translate(53.473 108.142)" fill="#e41c38"/><rect width="76.537" height="7.346" transform="translate(150.681 108.142)" fill="#e41c38"/><rect width="70.386" height="6.321" transform="translate(53.302 121.126)" fill="#e41c38"/><rect width="145.385" height="7.004" transform="translate(130.522 121.126)" fill="#e41c38"/><rect width="91.229" height="6.663" transform="translate(0 138.723)" fill="#e41c38"/><rect width="55.694" height="6.321" transform="translate(0 151.536)" fill="#e41c38"/><rect width="175.283" height="6.321" transform="translate(78.074 151.536)" fill="#e41c38"/><rect width="76.537" height="6.663" transform="translate(28.872 164.52)" fill="#e41c38"/><rect width="91.229" height="6.663" transform="translate(53.473 177.503)" fill="#e41c38"/><rect width="76.537" height="7.517" transform="translate(150.681 177.503)" fill="#e41c38"/><rect width="70.386" height="6.321" transform="translate(53.302 190.487)" fill="#e41c38"/><rect width="145.385" height="7.004" transform="translate(130.522 190.487)" fill="#e41c38"/></g><g transform="translate(991.606 629.212)" opacity="0.52"><rect width="59.282" height="4.271" fill="#e41c38"/><rect width="36.218" height="4.1" transform="translate(0 8.371)" fill="#e41c38"/><rect width="113.78" height="4.1" transform="translate(50.74 8.371)" fill="#e41c38"/><rect width="49.715" height="4.271" transform="translate(18.792 16.913)" fill="#e41c38"/><rect width="59.282" height="4.271" transform="translate(34.852 25.284)" fill="#e41c38"/><rect width="49.715" height="4.784" transform="translate(97.892 25.284)" fill="#e41c38"/><rect width="45.785" height="4.1" transform="translate(34.681 33.656)" fill="#e41c38"/><rect width="94.475" height="4.613" transform="translate(84.908 33.656)" fill="#e41c38"/><rect width="59.282" height="4.271" transform="translate(0 45.102)" fill="#e41c38"/><rect width="36.218" height="4.1" transform="translate(0 53.473)" fill="#e41c38"/><rect width="113.78" height="4.1" transform="translate(50.74 53.473)" fill="#e41c38"/><rect width="49.715" height="4.271" transform="translate(18.792 61.844)" fill="#e41c38"/><rect width="59.282" height="4.271" transform="translate(34.852 70.386)" fill="#e41c38"/><rect width="49.715" height="4.784" transform="translate(97.892 70.386)" fill="#e41c38"/><rect width="45.785" height="4.1" transform="translate(34.681 78.758)" fill="#e41c38"/><rect width="94.475" height="4.442" transform="translate(84.908 78.758)" fill="#e41c38"/><rect width="59.282" height="4.271" transform="translate(0 90.204)" fill="#e41c38"/><rect width="36.218" height="4.1" transform="translate(0 98.575)" fill="#e41c38"/><rect width="113.78" height="4.1" transform="translate(50.74 98.575)" fill="#e41c38"/><rect width="49.715" height="4.271" transform="translate(18.792 106.946)" fill="#e41c38"/><rect width="59.282" height="4.271" transform="translate(34.852 115.317)" fill="#e41c38"/><rect width="49.715" height="4.784" transform="translate(97.892 115.317)" fill="#e41c38"/><rect width="45.785" height="4.1" transform="translate(34.681 123.859)" fill="#e41c38"/><rect width="94.475" height="4.442" transform="translate(84.908 123.859)" fill="#e41c38"/></g><g transform="translate(1537.1 834.562)"><path d="M338.142,268.835c.513-2.9,1.2-5.809,1.708-8.713A45.787,45.787,0,0,0,340.7,255c2.733.512,5.467.854,8.03,1.367a1.276,1.276,0,0,0,1.708-.854v-.171c1.2-2.392,2.563-4.613,3.929-6.834a1.341,1.341,0,0,0,0-1.879h0c-1.708-2.05-3.417-4.1-5.3-6.321l11.446-9.567c1.708,2.05,3.588,4.1,5.125,6.15a1.25,1.25,0,0,0,1.879.513h.171a48.918,48.918,0,0,1,7-2.563,1.693,1.693,0,0,0,1.367-1.879V225.1h14.863v8.029c0,1.025.342,1.538,1.367,1.708a48.921,48.921,0,0,1,7,2.563,1.419,1.419,0,0,0,2.05-.342.167.167,0,0,1,.171-.171l5.125-6.15L418.1,240.3l-5.809,7c1.538,2.9,3.075,5.809,4.613,8.542a1.238,1.238,0,0,0,1.367.342c2.733-.342,5.3-.854,8.2-1.367l2.563,14.692-8.2,1.538a1.6,1.6,0,0,0-1.2.854c-.513,3.075-1.025,6.15-1.538,9.567l7.859,4.613-7.517,12.984-7.859-4.613c-2.563,2.05-5.125,3.929-7.517,5.979a1.052,1.052,0,0,0-.171,1.2c.854,2.563,1.879,5.3,2.9,8.03l-14.009,5.125c-.854-2.392-1.879-4.784-2.563-7A1.93,1.93,0,0,0,387,306.078h-.342a50.275,50.275,0,0,1-7.175,0,1.222,1.222,0,0,0-1.538.854v.171c-.854,2.563-1.879,5.125-2.9,7.859l-14.009-5.125,3.075-8.713-7.859-6.663-8.03,4.613L340.7,286.09c2.563-1.367,4.784-2.733,7.175-4.1a1.248,1.248,0,0,0,.683-1.708h0c-.512-2.392-1.025-4.784-1.367-7.346-.171-1.2-.342-1.708-1.708-1.879-2.563-.342-5.125-.854-7.688-1.367ZM383.927,250.9A19.05,19.05,0,1,0,402.719,270.2,19.174,19.174,0,0,0,383.927,250.9Z" transform="translate(-337.8 -225.1)" fill="#001a33"/><path d="M438.861,283.226l3.246,10.25c-1.879.683-3.758,1.2-5.467,1.879a1.262,1.262,0,0,0-.854,1.025c-.171,1.879-.171,3.588-.171,5.467-.171.683.171,1.367.854,1.367h0c1.708.683,3.417,1.367,5.3,2.05-1.367,3.417-2.734,6.663-4.1,9.909-1.879-.683-3.588-1.538-5.467-2.221a1.329,1.329,0,0,0-1.367.342c-1.367,1.538-2.734,3.075-4.271,4.954l3.075,5.809-9.4,4.954c-.854-1.708-1.708-3.417-2.733-5.125a1.438,1.438,0,0,0-1.2-.683c-2.221.171-4.271.683-6.663,1.025l-1.367,6.492L397.859,328.5l1.367-6.492c-1.879-1.2-3.759-2.563-5.638-3.588a1.5,1.5,0,0,0-1.2.171l-4.613,3.588-6.663-8.371c1.538-1.2,3.075-2.392,4.442-3.417a1.173,1.173,0,0,0,.513-1.538v-.171a45.04,45.04,0,0,1-1.708-5.125,1.023,1.023,0,0,0-1.2-1.025H377.7V291.768h6.663l2.563-6.15c.171-.342-.171-.854-.513-1.2a44.8,44.8,0,0,0-4.271-3.758l7.175-7.859,4.954,4.442,6.15-3.075a2.469,2.469,0,0,0,.342-1.2c-.171-1.879-.512-3.759-.854-5.638L410.5,265.8c.342,1.879.512,3.588.683,5.467a1.531,1.531,0,0,0,1.538,1.538,22.373,22.373,0,0,1,4.613,1.025,1.328,1.328,0,0,0,1.708-.513v-.171c.854-1.538,1.879-3.075,2.9-4.784L431,274l-3.417,5.638c1.367,1.879,2.733,3.588,4.1,5.3a1.815,1.815,0,0,0,1.367.171C435.273,284.422,436.982,283.909,438.861,283.226Zm-28.7,28.53a13.668,13.668,0,1,0-13.838-13.5h0a13.6,13.6,0,0,0,13.838,13.5Z" transform="translate(-309.535 -196.268)" fill="#001a33"/><path d="M430.981,246.138l4.1-3.246,5.3,6.663a16.432,16.432,0,0,1-2.9,2.221,1.623,1.623,0,0,0-.683,2.563,11.779,11.779,0,0,1,.512,1.367c.854,2.734.854,2.734,3.759,2.734h2.05v8.371H438.84c-.854,0-1.2.171-1.367,1.025a8.328,8.328,0,0,1-.683,1.879c-1.025,2.563-1.025,2.563,1.025,4.613l1.708,1.538-5.638,6.321-3.929-3.417c-1.538.854-3.075,1.538-4.613,2.392-.342.342-.512.683-.342,1.025.171,1.367.342,2.9.512,4.442l-8.371,1.2a31.9,31.9,0,0,0-.683-4.271,1.54,1.54,0,0,0-1.025-1.025c-1.538-.342-3.075-.683-4.784-1.025l-2.733,4.442-7.175-4.442c.854-1.2,1.538-2.563,2.221-3.588a.958.958,0,0,0,0-1.538l-.171-.171a18.713,18.713,0,0,1-1.708-1.879c-1.367-1.879-1.367-1.879-3.417-1.025-.854.342-1.708.513-2.9.854l-2.563-8.03c1.367-.513,2.733-.854,3.929-1.367.683-.171,1.2-.683,1.025-1.367v-.171a25.232,25.232,0,0,1,.171-3.588,1.056,1.056,0,0,0-.854-1.367h0c-1.367-.513-2.563-1.025-3.929-1.538l3.075-7.859a39.968,39.968,0,0,0,4.1,1.538,1.419,1.419,0,0,0,1.367-.342,34.164,34.164,0,0,0,3.246-3.758l-2.392-4.613,7.346-3.929,2.563,4.613,5.809-.854,1.025-5.125,8.2,1.708c-.342,1.367-.512,2.733-.854,4.1a1.248,1.248,0,0,0,.683,1.708h.171A19.052,19.052,0,0,1,430.981,246.138Zm-23.918,15.717a10.6,10.6,0,1,0,0-.342v.342Z" transform="translate(-299.263 -217.095)" fill="#001a33"/></g><path d="M217.743,167.221h.342a6.8,6.8,0,0,0-7-6.321H203.9a6.861,6.861,0,0,0-7,6.663v.513a6.752,6.752,0,0,0,7,6.663h1.538C209.542,172.346,211.592,167.221,217.743,167.221Z" transform="translate(1099.485 563.983)" fill="#001a33"/><path d="M251.842,167.321H251.5a6.8,6.8,0,0,1,7-6.321h7.175a6.861,6.861,0,0,1,7,6.663v.513a6.752,6.752,0,0,1-7,6.663h-1.538C260.213,172.446,257.992,167.321,251.842,167.321Z" transform="translate(1138.164 564.053)" fill="#001a33"/><path d="M225.3,171.779a19.879,19.879,0,0,1,8.2-1.879,22.291,22.291,0,0,1,8.884,1.879" transform="translate(1119.604 570.358)" fill="none" stroke="#fff" stroke-miterlimit="10" stroke-width="2"/><path d="M279.306,173.659c-2.563,14.692-15.034,23.747-26.48,21.013-9.567-2.221-17.084-12.471-17.426-24.772" transform="translate(1126.759 570.358)" fill="none" stroke="#fff" stroke-miterlimit="10" stroke-width="1"/><path d="M235.3,179.742v-3.075c0-7.517,5.467-13.667,12.3-13.667h19.3c6.834,0,12.3,6.15,12.3,13.667v3.075" transform="translate(1126.688 565.47)" fill="none" stroke="#001a33" stroke-miterlimit="10" stroke-width="3.95"/><ellipse cx="3.758" cy="1.879" rx="3.758" ry="1.879" transform="translate(1400.256 729.324)" fill="#fff"/><path d="M199.6,175.875c2.563,12.471,15.034,20.159,26.48,17.938A22.135,22.135,0,0,0,243.506,172.8" transform="translate(1101.398 572.413)" fill="none" stroke="#fff" stroke-miterlimit="10" stroke-width="1"/><path d="M199.6,179.742v-3.075c0-7.517,5.467-13.667,12.3-13.667h19.3c6.834,0,12.3,6.15,12.3,13.667v3.075" transform="translate(1101.398 565.47)" fill="none" stroke="#001a33" stroke-miterlimit="10" stroke-width="3.95"/><ellipse cx="3.758" cy="1.879" rx="3.758" ry="1.879" transform="translate(1299.973 729.324)" fill="#fff"/></g></svg>