<svg xmlns="http://www.w3.org/2000/svg" width="209.746" height="109.868" viewBox="0 0 209.746 109.868">
  <g id="Hands-B1BQmm9pN" transform="translate(779.452 -104.941)">
    <g id="Group_14" data-name="Group 14" transform="translate(-797.158 79)">
      <path id="Path_78" data-name="Path 78" d="M0,.149v79.9H29.964V.149Zm179.783,0v79.9h29.964V.149ZM113.456,1.632,80.684,28.865c-.035.03-.044.047-.078.077-4.046,3.521-5.7,6.148-5.7,8.662a8.989,8.989,0,0,0,2.341,6.633c1.49,1.524,4.328,2.864,9.208,3.2l43.463-24.19a5.183,5.183,0,0,1,6.711,1.717l27.467,45.1h5.7V10.137H149.819Zm-73.5,8.506V70.065h7.491l22.342,33.513A11.763,11.763,0,0,0,79.9,110.017c3.479-.107,7.2-2.2,9.988-4.994L80.222,87.7c-1.836-2.913.465-7.424,3.9-7.647a5.109,5.109,0,0,1,4.682,2.419l13.433,22.746c2.635,4.8,11.116,3.457,13.793-.819L98.631,77.79c-1.9-2.875.314-7.432,3.745-7.725a5.1,5.1,0,0,1,4.682,2.341l16.948,25.9c3.34,4.216,11.263,3.587,14.421-1.48L118.607,65.3c-1.9-2.875.314-7.432,3.745-7.725a5.1,5.1,0,0,1,4.682,2.341l19.089,30.374c3.7,4.74,13.948,2.968,16.493-3.3L130.545,34.327,89.813,56.956a5.025,5.025,0,0,1-2.575.624c-7.534-.2-13.373-2.516-17.167-6.4A19.088,19.088,0,0,1,64.921,37.6c0-6.749,4.223-12,9.208-16.309.026-.027.052-.052.078-.077l13.265-11.08Zm-24.97,49.94a4.994,4.994,0,1,1-4.994,4.994A4.994,4.994,0,0,1,14.982,60.077Zm179.782,0a4.994,4.994,0,1,1-4.994,4.994A4.994,4.994,0,0,1,194.764,60.077Z" transform="translate(17.706 25.792)" fill="#e41c38" fill-rule="evenodd"/>
    </g>
  </g>
</svg>
