<svg xmlns="http://www.w3.org/2000/svg" width="146.86" height="146.868" viewBox="0 0 146.86 146.868">
  <g id="repair-ryoAzQcpE" transform="translate(27.327 -18.803)">
    <g id="Group_15" data-name="Group 15" transform="translate(-27.327 18.803)">
      <path id="Path_79" data-name="Path 79" d="M105.379,84.988,90.094,69.7l35.025-35.022h6.965a2.873,2.873,0,0,0,2.04-.845l12.241-12.241a2.884,2.884,0,0,0,0-4.079L130.044,1.194a2.882,2.882,0,0,0-4.08,0L113.723,13.432a2.882,2.882,0,0,0-.845,2.04v6.965L77.856,57.462c-3.846-3.849-12.1-12.1-15.282-15.285A31.72,31.72,0,0,0,23.833,1.846a2.887,2.887,0,0,0-1.264,4.821L33.4,17.495,30.036,30.039,17.486,33.4,6.661,22.578a2.882,2.882,0,0,0-4.815,1.267A31.712,31.712,0,0,0,42.17,62.58L57.452,77.865l-3.788,3.788a17.262,17.262,0,0,0-19.691,3.373L5.409,113.582a17.34,17.34,0,0,0,0,24.483l4.082,4.08a17.305,17.305,0,0,0,24.48,0L62.53,113.582A17.257,17.257,0,0,0,65.9,93.894l3.788-3.788,15.285,15.285a31.737,31.737,0,0,0,38.741,40.328,2.885,2.885,0,0,0,1.264-4.818l-10.828-10.828,3.361-12.547,12.547-3.361,10.828,10.828a2.885,2.885,0,0,0,4.818-1.264,31.721,31.721,0,0,0-40.328-38.741ZM13.573,128.711a2.885,2.885,0,0,1-2.04-4.925L44.172,91.145a2.885,2.885,0,0,1,4.079,4.08L15.613,127.866a2.877,2.877,0,0,1-2.04.845Zm42.838-25.328L23.772,136.025a2.885,2.885,0,0,1-4.079-4.079L52.331,99.3a2.885,2.885,0,0,1,4.079,4.079Z" transform="translate(-0.35 -0.348)" fill="#e41c38" fill-rule="evenodd"/>
    </g>
  </g>
</svg>
